<svg width="32" height="32" viewBox="0 0 32 32" fill="none" xmlns="http://www.w3.org/2000/svg">
<rect x="0.80835" y="0.867859" width="30.4897" height="30.4897" rx="15.2448" fill="#EDA415"/>
<path d="M8.88153 8.9411H10.1294C10.9039 8.9411 11.5135 9.60806 11.449 10.3754L10.8537 17.5184C10.7533 18.6873 11.6785 19.6914 12.8546 19.6914H20.4924C21.5251 19.6914 22.4287 18.8451 22.5076 17.8196L22.8949 12.4409C22.9809 11.2504 22.0773 10.2822 20.8797 10.2822H11.6211" stroke="white" stroke-width="1.47531" stroke-miterlimit="10" stroke-linecap="round" stroke-linejoin="round"/>
<path d="M19.1011 23.2844C19.5962 23.2844 19.9976 22.883 19.9976 22.3879C19.9976 21.8928 19.5962 21.4915 19.1011 21.4915C18.606 21.4915 18.2047 21.8928 18.2047 22.3879C18.2047 22.883 18.606 23.2844 19.1011 23.2844Z" stroke="white" stroke-width="1.47531" stroke-miterlimit="10" stroke-linecap="round" stroke-linejoin="round"/>
<path d="M13.3639 23.2844C13.859 23.2844 14.2603 22.883 14.2603 22.3879C14.2603 21.8928 13.859 21.4915 13.3639 21.4915C12.8688 21.4915 12.4674 21.8928 12.4674 22.3879C12.4674 22.883 12.8688 23.2844 13.3639 23.2844Z" stroke="white" stroke-width="1.47531" stroke-miterlimit="10" stroke-linecap="round" stroke-linejoin="round"/>
<path d="M13.9017 13.2441H22.5076" stroke="white" stroke-width="1.47531" stroke-miterlimit="10" stroke-linecap="round" stroke-linejoin="round"/>
</svg>
