<svg width="24" height="24" viewBox="0 0 24 24" fill="none" xmlns="http://www.w3.org/2000/svg">
<path d="M15.5184 12.1127C15.5184 14.0601 13.9448 15.6338 11.9974 15.6338C10.05 15.6338 8.47632 14.0601 8.47632 12.1127C8.47632 10.1653 10.05 8.59167 11.9974 8.59167C13.9448 8.59167 15.5184 10.1653 15.5184 12.1127Z" stroke="#292D32" stroke-width="1.47531" stroke-linecap="round" stroke-linejoin="round"/>
<path d="M11.9975 20.2465C15.4694 20.2465 18.7052 18.2008 20.9575 14.66C21.8427 13.2733 21.8427 10.9423 20.9575 9.55549C18.7052 6.01475 15.4694 3.96899 11.9975 3.96899C8.52562 3.96899 5.28978 6.01475 3.03748 9.55549C2.1523 10.9423 2.1523 13.2733 3.03748 14.66C5.28978 18.2008 8.52562 20.2465 11.9975 20.2465Z" stroke="#292D32" stroke-width="1.47531" stroke-linecap="round" stroke-linejoin="round"/>
</svg>
