<svg width="16" height="16" viewBox="0 0 16 16" fill="none" xmlns="http://www.w3.org/2000/svg">
<path d="M9.31712 1.41659L10.6154 4.01313C10.7924 4.36721 11.2645 4.72128 11.6579 4.78029L14.0086 5.17371C15.5134 5.42943 15.8675 6.51132 14.7856 7.59321L12.9562 9.43242C12.6513 9.73732 12.4743 10.3373 12.5726 10.77L13.0939 13.042C13.507 14.832 12.553 15.5304 10.9695 14.596L8.76634 13.2879C8.36309 13.0518 7.71396 13.0518 7.31071 13.2879L5.09775 14.5862C3.51425 15.5205 2.56022 14.8222 2.97331 13.0322L3.49458 10.7602C3.59294 10.3373 3.4159 9.73732 3.111 9.42259L1.29146 7.60304C0.209566 6.52115 0.56364 5.42943 2.06845 5.18354L4.41911 4.79013C4.81252 4.72128 5.28462 4.37704 5.46166 4.02297L6.75993 1.42643C7.45824 0.0101353 8.61881 0.0101351 9.31712 1.41659Z" fill="#ACACAC"/>
</svg>
